# xmcd CD database file
#
# Track frame offsets:
#	150
#	14481
#	26379
#	39057
#	51541
#	63986
#	73622
#	88143
#	102346
#	116300
#	127043
#	136791
#	148942
#	160270
#
# Disc length: 2321 seconds
#
# Revision: 0
# Processed by: cddbd v1.5.2PL0 Copyright (c) Steve Scherf et al.
# Submitted via: CDex 1.70beta2
#
DISCID=c1090f0e
DTITLE=Ernest Tubb - Time After Time
DYEAR=2005
DGENRE=Country
TTITLE0=Don't Look Now
TTITLE1=Your Cheatin' Heart
TTITLE2=I Hate To See You Go
TTITLE3=I Love You Because
TTITLE4=I'll Step Aside
TTITLE5=Kansas City Blues
TTITLE6=Missing In  Action
TTITLE7=Time After Time
TTITLE8=Tomorow Never Comes
TTITLE9=Two Glasses, Joe
TTITLE10=Walking The Floor Over You
TTITLE11=Waltz Across Texas
TTITLE12=Yellow Rose Of Texas
TTITLE13=Rainbow At Midnight
EXTD=YEAR: 2005
EXTT0=
EXTT1=
EXTT2=
EXTT3=
EXTT4=
EXTT5=
EXTT6=
EXTT7=
EXTT8=
EXTT9=
EXTT10=
EXTT11=
EXTT12=
EXTT13=
PLAYORDER=
